<svg xmlns="http://www.w3.org/2000/svg" xmlns:xlink="http://www.w3.org/1999/xlink" viewBox="0 0 506.52 436.12"><defs><style>.cls-1{fill:#2b95ff;}.cls-2{fill:url(#linear-gradient);}.cls-3{fill:#050306;}</style><linearGradient id="linear-gradient" x1="67.39" y1="249.57" x2="461.43" y2="249.57" gradientTransform="translate(226.06 -111.99) rotate(40.6)" gradientUnits="userSpaceOnUse"><stop offset="0" stop-color="#7a54ff"/><stop offset="1" stop-color="aqua"/></linearGradient></defs><g id="Layer_2" data-name="Layer 2"><g id="Layer_1-2" data-name="Layer 1"><ellipse class="cls-1" cx="309.06" cy="250.33" rx="225.09" ry="150.51" transform="translate(-88.51 261.38) rotate(-40.6)"/><ellipse class="cls-2" cx="264.41" cy="249.57" rx="225.09" ry="150.51" transform="translate(-98.76 232.15) rotate(-40.6)"/><path class="cls-3" d="M306.34,104.28c11.7-6.92,24-12,37.83-12.41,18.95-.61,35.78,5.11,50.07,17.36,22,18.82,32.62,43.31,34.72,73.31l-15.19-16.49c-11.51-12.46-22.77-25.17-36.85-34.94-20-13.85-42-16.61-66.61-12.53,13.59,7,20.2,17.41,20.56,31.54.28,11-5.28,24.38-11.94,29.65,0-7.56.06-15.29,0-23-.14-14.32-6-25.63-17.86-33.79-5.09-3.51-11.31-1.93-13.74,3.63-12.57,28.76-18.85,59.07-22.16,90.12A481.28,481.28,0,0,0,262.08,275c.29,19.33,2.28,38.55,3.88,57.79.13,1.56.36,2.71,2,3.6,23.79,13.18,45.89,29.29,70.35,41.32,17,8.36,34.33,15.57,53,19.47,23.68,4.93,45.39.83,65.76-11.95,16.77-10.52,30.45-24.64,44.74-38.07,1.37-1.28,2.26-3.45,4.7-3.23-2.61,10.06-7.84,19-12.81,27.91-10.7,19.27-24,36.33-43,48.19-21,13.07-43.92,17.44-68.22,15.28-36-3.21-68.22-17.32-99.28-34.66-17.52-9.78-34-21.34-52.13-30.11a256.43,256.43,0,0,0-117-25.91c-36.88.54-72.52,7.62-107.24,19.77-1.56.54-3.14,1-4.74,1.44A2.42,2.42,0,0,1,0,365.16c64.93-54.75,138.53-70.73,221.1-49,.61-8.46,1-17,1.89-25.52,6.58-60.17,24.33-116.53,57.67-167.45,2.18-3.33,1.57-3.88-2.07-4.17-11.14-.91-20.46,3-28.76,10.11-6.56,5.61-11.91,12.41-18.11,18.62-2.46-19.25,14.86-37.67,38.53-40.56a102,102,0,0,0-27.41-18c-19.66-8.67-39.86-7.58-60.06-2.62-14.65,3.59-29.12,7.88-43.67,11.86-.77.2-1.56.31-3.52.7C159,68.8,187.3,50.47,225.9,55.3c25.36,3.17,43.3,18.09,54.65,40.94.52,1,1,2.12,1.42,3.18s.88,2.06,1.81,4.22c1.33-10.2-1.59-18.59-4.18-26.93-7-22.62-22.73-37.79-42.68-49.19-13.84-7.91-28.43-14.32-42.64-21.46-1.43-.71-3.16-1-4.18-2.55,4.35-1.76,9.11-1.28,13.16-3.51h23c6.85,2.11,14.06,2.62,20.88,5,24.58,8.43,42.8,23.55,51.59,48.71,3.15,9,4.18,18.37,3.14,29.38,2.3-3.13,3.74-5.18,5.27-7.15a73.27,73.27,0,0,1,78.45-25.63c23.63,6.7,46,23.17,57.55,42.79-12.66-3.65-24.78-7.23-36.95-10.62-15.73-4.38-31.57-7.59-48.09-5.78-15.68,1.72-29.21,8.29-41.66,17.49-3.87,2.85-7.43,6.11-11.13,9.18l-1.15,1.28A1.34,1.34,0,0,0,306.34,104.28Zm-12,8.21c.45.19.6,1.18,1.41.45s-.12-1-.26-1.49c.43.16.57,1.11,1.31.39s-.17-.92-.31-1.36c.18.94.58,1.47,1.46.62.17-.16,1.09-.48.3-.86-.45-.21-1.16.14-1.74.24,0,.68-.25,1.08-1,1-.09.66-.27,1.24-1.14,1,.14.7-.15,1-.84.85-.19.71-.64,1.47-.5,2.1s.71,0,1-.29c.71-.84,1.13-1.61-.49-1.82.44.14.52,1.24,1.3.44S294.54,112.91,294.38,112.49Zm8.32-6.31-.21.9a1.16,1.16,0,0,1-.12-.44,6.64,6.64,0,0,1,.16-.87C302.59,105.9,302.64,106,302.7,106.18Zm-1.86,2.3-.32-.54c-.1.1-.31.22-.29.29a2.47,2.47,0,0,0,.3.61Z"/></g></g></svg>